<svg version="1.0" xmlns="http://www.w3.org/2000/svg"
 viewBox="0 0 360.000000 194.000000"
 preserveAspectRatio="xMidYMid meet">

<g transform="translate(0.000000,194.000000) scale(0.100000,-0.100000)"
fill="#fff" stroke="none">
<path d="M1165 1913 c-83 -10 -227 -38 -284 -55 -289 -89 -555 -312 -736 -620
-63 -106 -127 -253 -123 -283 2 -11 12 -21 23 -23 17 -2 26 11 54 80 47 118
130 262 210 365 235 303 534 460 916 479 298 16 556 -88 826 -333 82 -74 111
-86 117 -47 3 24 -143 158 -263 240 -220 151 -501 226 -740 197z"/>
<path d="M2007 1873 c-19 -18 4 -53 120 -182 96 -108 131 -141 147 -139 41 6
30 38 -36 107 -36 36 -95 101 -132 144 -65 73 -84 86 -99 70z"/>
<path d="M1837 1493 c-18 -17 -2 -41 53 -76 60 -39 92 -44 98 -16 2 10 -20 31
-61 58 -64 41 -78 47 -90 34z"/>
<path d="M2568 1444 c-15 -8 -69 -73 -119 -144 -51 -72 -95 -130 -99 -130 -9
0 -107 104 -141 149 -30 41 -52 38 -73 -12 -8 -19 -71 -130 -141 -246 -70
-116 -125 -218 -122 -225 3 -8 34 -27 69 -42 81 -36 143 -69 358 -185 96 -53
263 -143 370 -202 107 -58 257 -131 332 -161 76 -31 160 -70 187 -86 73 -45
259 -121 314 -127 72 -9 97 8 97 66 0 66 -161 434 -280 641 -20 36 -57 101
-80 145 -24 44 -71 125 -105 180 -34 55 -76 128 -94 162 -33 61 -35 63 -110
92 -42 15 -94 34 -116 41 -22 7 -79 32 -127 56 -48 24 -89 44 -90 44 -2 -1
-15 -7 -30 -16z m67 -156 c97 -186 400 -619 574 -821 86 -100 131 -158 157
-201 17 -29 17 -29 -2 -15 -11 8 -85 68 -164 134 -80 66 -165 136 -190 156
-25 20 -56 47 -70 60 -15 13 -89 81 -165 151 -77 69 -195 182 -261 250 l-122
123 90 128 c50 70 93 127 98 127 4 0 28 -41 55 -92z m106 40 c35 -15 99 -39
141 -54 l76 -26 74 -125 c171 -292 273 -477 344 -621 77 -156 167 -363 161
-369 -2 -2 -33 38 -68 88 -102 143 -139 192 -213 276 -94 107 -260 328 -353
470 -43 65 -97 145 -121 178 -24 33 -61 92 -81 130 -45 88 -45 88 -34 84 5 -2
38 -16 74 -31z m40 -657 c107 -97 274 -240 370 -318 96 -78 199 -165 229 -193
l55 -50 -85 36 c-47 19 -112 50 -145 69 -33 18 -121 58 -195 89 -74 31 -187
85 -250 120 -63 35 -209 114 -325 176 -115 63 -241 132 -280 155 -38 23 -102
56 -142 74 l-72 33 66 107 c36 58 90 147 120 197 l54 91 202 -205 c111 -113
290 -284 398 -381z"/>
</g>
</svg>
