<svg xmlns="http://www.w3.org/2000/svg" width="120" height="40" viewBox="0 0 120 40" fill="none"><rect x="0.499756" y="0.5" width="119" height="39" rx="3.5" stroke="#D5D5D6"/><path d="M60.2264 20.8653C58.1973 20.8653 56.5395 22.4109 56.5395 24.5349C56.5395 26.6504 58.1973 28.2046 60.2264 28.2046C62.2554 28.2046 63.9133 26.6504 63.9133 24.5349C63.9133 22.4109 62.2554 20.8653 60.2264 20.8653ZM60.2264 26.7626C59.1125 26.7626 58.1541 25.8474 58.1541 24.5349C58.1541 23.2139 59.1125 22.3073 60.2264 22.3073C61.3402 22.3073 62.2986 23.2139 62.2986 24.5349C62.2986 25.8474 61.3316 26.7626 60.2264 26.7626ZM52.1791 20.8653C50.15 20.8653 48.4922 22.4109 48.4922 24.5349C48.4922 26.6504 50.15 28.2046 52.1791 28.2046C54.2082 28.2046 55.866 26.6504 55.866 24.5349C55.866 22.4109 54.2082 20.8653 52.1791 20.8653ZM52.1791 26.7626C51.0652 26.7626 50.1068 25.8474 50.1068 24.5349C50.1068 23.2139 51.0652 22.3073 52.1791 22.3073C53.2929 22.3073 54.2513 23.2139 54.2513 24.5349C54.2513 25.8474 53.2929 26.7626 52.1791 26.7626ZM42.6121 21.9964V23.5506H46.3422C46.2299 24.4227 45.9364 25.0703 45.496 25.5106C44.952 26.0546 44.1059 26.6504 42.6207 26.6504C40.324 26.6504 38.528 24.8026 38.528 22.5058C38.528 20.2091 40.324 18.3613 42.6207 18.3613C43.8555 18.3613 44.7621 18.8448 45.4269 19.4752L46.5235 18.3786C45.591 17.4892 44.3563 16.8071 42.6121 16.8071C39.4692 16.8071 36.827 19.3629 36.827 22.5145C36.827 25.6574 39.4692 28.2218 42.6121 28.2218C44.3131 28.2218 45.591 27.6692 46.5926 26.6245C47.6201 25.597 47.9395 24.1464 47.9395 22.9807C47.9395 22.6181 47.9136 22.2813 47.8532 22.005H42.6121V21.9964ZM81.7347 23.2052C81.4325 22.385 80.5 20.8653 78.5918 20.8653C76.7009 20.8653 75.1294 22.3504 75.1294 24.5349C75.1294 26.5899 76.6836 28.2046 78.7731 28.2046C80.4568 28.2046 81.4325 27.1771 81.8297 26.5813L80.5777 25.7438C80.1633 26.3568 79.5934 26.7626 78.7731 26.7626C77.9529 26.7626 77.3657 26.3827 76.9944 25.6488L81.9074 23.6197L81.7347 23.2052ZM76.7268 24.4313C76.6836 23.0153 77.8233 22.29 78.6436 22.29C79.2826 22.29 79.8265 22.6095 80.0079 23.0671L76.7268 24.4313ZM72.7377 27.9887H74.3523V17.1957H72.7377V27.9887ZM70.0955 21.6856H70.0351C69.6724 21.2539 68.9817 20.8653 68.101 20.8653C66.2618 20.8653 64.5781 22.4799 64.5781 24.5522C64.5781 26.6072 66.2618 28.2132 68.101 28.2132C68.973 28.2132 69.6724 27.8247 70.0351 27.3757H70.0869V27.9024C70.0869 29.3098 69.3357 30.061 68.1269 30.061C67.1425 30.061 66.5295 29.353 66.2791 28.7572L64.8717 29.3443C65.2775 30.32 66.3482 31.5116 68.1269 31.5116C70.0178 31.5116 71.6152 30.3977 71.6152 27.6865V21.0898H70.0869V21.6856H70.0955ZM68.2391 26.7626C67.1253 26.7626 66.1928 25.8301 66.1928 24.5522C66.1928 23.257 67.1253 22.3159 68.2391 22.3159C69.3357 22.3159 70.1991 23.2657 70.1991 24.5522C70.2078 25.8301 69.3443 26.7626 68.2391 26.7626ZM89.2985 17.1957H85.4389V27.9887H87.0536V23.896H89.3071C91.0945 23.896 92.8473 22.6008 92.8473 20.5458C92.8473 18.4908 91.0772 17.1957 89.2985 17.1957ZM89.333 22.3936H87.0449V18.6894H89.333C90.5419 18.6894 91.224 19.691 91.224 20.5372C91.224 21.3834 90.5419 22.3936 89.333 22.3936ZM99.2972 20.848C98.1315 20.848 96.9227 21.3661 96.4219 22.4972L97.8552 23.093C98.1574 22.4972 98.7273 22.2986 99.3231 22.2986C100.152 22.2986 101.007 22.7994 101.015 23.6888V23.801C100.722 23.637 100.1 23.3866 99.3317 23.3866C97.7862 23.3866 96.2233 24.2327 96.2233 25.8128C96.2233 27.2548 97.484 28.1873 98.9 28.1873C99.9793 28.1873 100.584 27.7038 100.955 27.1339H101.007V27.9714H102.561V23.8355C102.57 21.9187 101.136 20.848 99.2972 20.848ZM99.0986 26.7626C98.5719 26.7626 97.838 26.495 97.838 25.8474C97.838 25.0185 98.7532 24.699 99.5476 24.699C100.256 24.699 100.592 24.8544 101.015 25.0616C100.895 26.0546 100.031 26.7626 99.0986 26.7626ZM108.234 21.0812L106.386 25.761H106.334L104.417 21.0812H102.682L105.557 27.6261L103.917 31.2612H105.6L110.03 21.0812H108.234ZM93.728 27.9887H95.3426V17.1957H93.728V27.9887Z" fill="black"/><path d="M10.4056 8.59574C10.1552 8.8634 10.0084 9.27786 10.0084 9.80456V28.9039C10.0084 29.4393 10.1552 29.8537 10.4056 30.1128L10.466 30.1732L21.1641 19.4838V19.3542V19.2247L10.466 8.53529L10.4056 8.59574Z" fill="url(#paint0_linear)"/><path d="M24.7302 23.0498L21.1642 19.4838V19.3542V19.2247L24.7302 15.6587L24.8079 15.7019L29.0302 18.1023C30.239 18.7844 30.239 19.9069 29.0302 20.5976L24.8079 22.998L24.7302 23.0498Z" fill="url(#paint1_linear)"/><path d="M24.8078 22.998L21.164 19.3543L10.4055 30.1128C10.8027 30.5359 11.4589 30.5877 12.2015 30.1646L24.8078 22.998Z" fill="url(#paint2_linear)"/><path d="M24.8077 15.7105L12.1928 8.54394C11.4503 8.12085 10.794 8.17266 10.3969 8.59575L21.164 19.3543L24.8077 15.7105Z" fill="url(#paint3_linear)"/><path opacity="0.2" d="M24.73 22.9203L12.1928 30.0437C11.4935 30.4409 10.8631 30.415 10.466 30.0523L10.4055 30.1128L10.466 30.1732C10.8718 30.5358 11.4935 30.5618 12.1928 30.1646L24.8078 22.998L24.73 22.9203Z" fill="black"/><path opacity="0.12" d="M10.4056 29.9919C10.1552 29.7242 10.0084 29.3098 10.0084 28.7831V28.9126C10.0084 29.4479 10.1552 29.8624 10.4056 30.1214L10.466 30.061L10.4056 29.9919Z" fill="black"/><path opacity="0.12" d="M29.0301 20.4768L24.7216 22.9203L24.7993 22.998L29.0215 20.5976C29.6259 20.2523 29.9281 19.8033 29.9281 19.3543C29.885 19.7601 29.5827 20.1659 29.0301 20.4768Z" fill="black"/><path opacity="0.25" d="M12.1929 8.66551L29.0301 18.2325C29.574 18.5433 29.8849 18.9405 29.9367 19.3549C29.9367 18.906 29.6345 18.4483 29.0301 18.1116L12.1929 8.54463C10.9841 7.86251 9.99976 8.43238 9.99976 9.81389V9.94341C9.99976 8.55326 10.9927 7.98339 12.1929 8.66551Z" fill="white"/><path d="M37.7509 14.4068H37.1119V12.6712H37.6214C38.0704 12.2827 38.2862 11.6265 38.2776 10.6853V8.12952H41.74V12.6712H42.3185V14.4068H41.6796V13.3102H37.7509V14.4068ZM38.9511 10.6939C38.9597 11.5142 38.7957 12.1704 38.4589 12.6799H41.0751V8.76846H38.9511V10.6939Z" fill="#AAABAD" stroke="#AAABAD" stroke-width="0.2" stroke-miterlimit="10"/><path d="M47.5078 12.6367C46.9984 13.1634 46.3681 13.4224 45.6083 13.4224C44.8484 13.4224 44.2181 13.1634 43.7087 12.6367C43.1992 12.11 42.9489 11.471 42.9489 10.7199C42.9489 9.96866 43.1992 9.32107 43.7087 8.80301C44.2181 8.27631 44.8484 8.01727 45.6083 8.01727C46.3595 8.01727 46.9898 8.27631 47.5078 8.80301C48.0173 9.32971 48.2763 9.96866 48.2763 10.7199C48.2763 11.4797 48.0173 12.1186 47.5078 12.6367ZM44.2008 12.205C44.5808 12.5935 45.0557 12.7835 45.6083 12.7835C46.1609 12.7835 46.6358 12.5935 47.0157 12.205C47.3956 11.8164 47.5942 11.3243 47.5942 10.7199C47.5942 10.1154 47.4042 9.62328 47.0157 9.23473C46.6358 8.84618 46.1609 8.65622 45.6083 8.65622C45.0557 8.65622 44.5808 8.84618 44.2008 9.23473C43.8209 9.62328 43.6223 10.1154 43.6223 10.7199C43.6223 11.3243 43.8209 11.8164 44.2008 12.205Z" fill="#AAABAD" stroke="#AAABAD" stroke-width="0.2" stroke-miterlimit="10"/><path d="M51.6263 13.4224C50.8665 13.4224 50.2275 13.1634 49.7095 12.6453C49.1914 12.1273 48.9324 11.4883 48.9324 10.7112C48.9324 9.93413 49.1914 9.29518 49.7095 8.77711C50.2275 8.25905 50.8665 8.00002 51.6263 8.00002C52.4034 8.00002 53.0424 8.28495 53.5259 8.84619L53.0596 9.29518C52.7056 8.85482 52.2307 8.63896 51.6177 8.63896C51.0564 8.63896 50.5729 8.82892 50.1844 9.20884C49.7958 9.58875 49.6059 10.0895 49.6059 10.7026C49.6059 11.3156 49.7958 11.8164 50.1844 12.1964C50.5729 12.5763 51.0478 12.7662 51.6177 12.7662C52.2394 12.7662 52.7661 12.5158 53.2064 12.015L53.6727 12.4813C53.4396 12.7662 53.1373 12.9907 52.7833 13.1548C52.4293 13.3447 52.0408 13.4224 51.6263 13.4224Z" fill="#AAABAD" stroke="#AAABAD" stroke-width="0.2" stroke-miterlimit="10"/><path d="M56.3753 13.3102H55.7105V8.76846H54.2599V8.12952H57.8173V8.76846H56.3667V13.3102H56.3753Z" fill="#AAABAD" stroke="#AAABAD" stroke-width="0.2" stroke-miterlimit="10"/><path d="M62.3935 8.12952L60.4335 12.4985C60.1658 13.1116 59.76 13.4224 59.2247 13.4224C59.0692 13.4224 58.8965 13.3879 58.7066 13.3102L58.8793 12.6971C58.9915 12.7576 59.1038 12.7921 59.2247 12.7921C59.3801 12.7921 59.501 12.7662 59.5873 12.7058C59.6736 12.6453 59.7514 12.5331 59.8204 12.3777L60.0104 11.9632L58.2662 8.12952H59.052L60.3299 11.0998H60.3558L61.6078 8.12952H62.3935Z" fill="#AAABAD" stroke="#AAABAD" stroke-width="0.2" stroke-miterlimit="10"/><path d="M63.1448 13.3102V8.12952H66.8921V13.3102H66.2273V8.76846H63.8096V13.3102H63.1448Z" fill="#AAABAD" stroke="#AAABAD" stroke-width="0.2" stroke-miterlimit="10"/><path d="M68.075 13.3102V8.12952H68.7398V10.3486H71.3301V8.12952H71.995V13.3102H71.3301V10.9702H68.7398V13.3102H68.075Z" fill="#AAABAD" stroke="#AAABAD" stroke-width="0.2" stroke-miterlimit="10"/><path d="M77.4262 12.6367C76.9167 13.1634 76.2864 13.4224 75.5266 13.4224C74.7668 13.4224 74.1365 13.1634 73.627 12.6367C73.1176 12.11 72.8672 11.471 72.8672 10.7199C72.8672 9.96866 73.1176 9.32107 73.627 8.80301C74.1365 8.27631 74.7668 8.01727 75.5266 8.01727C76.2778 8.01727 76.9081 8.27631 77.4262 8.80301C77.9356 9.32971 78.1946 9.96866 78.1946 10.7199C78.186 11.4797 77.9356 12.1186 77.4262 12.6367ZM74.1192 12.205C74.4991 12.5935 74.974 12.7835 75.5266 12.7835C76.0792 12.7835 76.5541 12.5935 76.934 12.205C77.3139 11.8164 77.5125 11.3243 77.5125 10.7199C77.5125 10.1154 77.3226 9.62328 76.934 9.23473C76.5541 8.84618 76.0792 8.65622 75.5266 8.65622C74.974 8.65622 74.4991 8.84618 74.1192 9.23473C73.7393 9.62328 73.5407 10.1154 73.5407 10.7199C73.5407 11.3243 73.7306 11.8164 74.1192 12.205Z" fill="#AAABAD" stroke="#AAABAD" stroke-width="0.2" stroke-miterlimit="10"/><path d="M80.9058 13.3102V8.12952H82.7794C83.1853 8.12952 83.5393 8.26767 83.8328 8.5267C84.1264 8.79437 84.2818 9.13111 84.2818 9.53693C84.2818 9.78733 84.2214 10.0032 84.0919 10.1845C83.9624 10.3745 83.7983 10.5126 83.5824 10.6076V10.6335C83.8415 10.7198 84.0487 10.8666 84.2128 11.0825C84.3768 11.2984 84.4632 11.5401 84.4632 11.8251C84.4632 12.2481 84.3077 12.6022 83.9969 12.8785C83.6861 13.1548 83.3148 13.3015 82.8917 13.3015H80.9058V13.3102ZM81.5706 10.3486H82.7794C83.0298 10.3486 83.2284 10.2622 83.3838 10.0982C83.5393 9.93411 83.6083 9.75279 83.6083 9.5542C83.6083 9.35561 83.5393 9.17428 83.3838 9.01023C83.2371 8.84618 83.0471 8.75983 82.8053 8.75983H81.5706V10.3486ZM81.5706 12.6712H82.909C83.168 12.6712 83.3752 12.5849 83.5306 12.4036C83.6861 12.2222 83.7724 12.0323 83.7724 11.8164C83.7724 11.6006 83.6947 11.4106 83.522 11.2379C83.3579 11.0652 83.1421 10.9702 82.8744 10.9702H81.562V12.6712H81.5706Z" fill="#AAABAD" stroke="#AAABAD" stroke-width="0.2" stroke-miterlimit="10"/><defs><linearGradient id="paint0_linear" x1="20.2141" y1="9.6057" x2="5.72341" y2="24.0964" gradientUnits="userSpaceOnUse"><stop stop-color="#00A0FF"/><stop offset="0.00657445" stop-color="#00A1FF"/><stop offset="0.2601" stop-color="#00BEFF"/><stop offset="0.5122" stop-color="#00D2FF"/><stop offset="0.7604" stop-color="#00DFFF"/><stop offset="1" stop-color="#00E3FF"/></linearGradient><linearGradient id="paint1_linear" x1="30.6054" y1="19.3555" x2="9.71276" y2="19.3555" gradientUnits="userSpaceOnUse"><stop stop-color="#FFE000"/><stop offset="0.4087" stop-color="#FFBD00"/><stop offset="0.7754" stop-color="#FFA500"/><stop offset="1" stop-color="#FF9C00"/></linearGradient><linearGradient id="paint2_linear" x1="22.8279" y1="21.3368" x2="3.17737" y2="40.9873" gradientUnits="userSpaceOnUse"><stop stop-color="#FF3A44"/><stop offset="1" stop-color="#C31162"/></linearGradient><linearGradient id="paint3_linear" x1="7.69194" y1="2.23752" x2="16.4668" y2="11.0123" gradientUnits="userSpaceOnUse"><stop stop-color="#32A071"/><stop offset="0.0685" stop-color="#2DA771"/><stop offset="0.4762" stop-color="#15CF74"/><stop offset="0.8009" stop-color="#06E775"/><stop offset="1" stop-color="#00F076"/></linearGradient></defs></svg>
