<svg width="120" height="40" fill="none" xmlns="http://www.w3.org/2000/svg" data-marker="MobileApp.AppStore"><rect x="0.5" y="0.5" width="119" height="39" rx="3.5" stroke="#D5D5D6"></rect><path d="M26.078 18.8a5.043 5.043 0 012.401-4.23 5.162 5.162 0 00-4.066-2.2c-1.712-.179-3.37 1.025-4.242 1.025-.89 0-2.232-1.006-3.677-.977a5.418 5.418 0 00-4.558 2.78c-1.971 3.412-.501 8.427 1.387 11.184.944 1.351 2.048 2.86 3.492 2.806 1.414-.058 1.942-.901 3.648-.901 1.69 0 2.185.901 3.659.867 1.517-.024 2.472-1.356 3.384-2.72.678-.962 1.2-2.026 1.547-3.15a4.872 4.872 0 01-2.975-4.484zM23.295 10.557A4.964 4.964 0 0024.43 7a5.052 5.052 0 00-3.268 1.691 4.723 4.723 0 00-1.166 3.425 4.177 4.177 0 003.299-1.56zM42.649 25.905H38.01l-1.114 3.289h-1.965l4.393-12.168h2.041l4.394 12.168h-1.998l-1.113-3.29zm-4.158-1.518h3.676l-1.812-5.338h-.05l-1.814 5.338zM55.248 24.759c0 2.756-1.476 4.528-3.703 4.528a3.007 3.007 0 01-2.791-1.552h-.042v4.394H46.89V20.322h1.763v1.476h.033a3.148 3.148 0 012.825-1.569c2.252 0 3.736 1.78 3.736 4.53zm-1.872 0c0-1.797-.928-2.977-2.344-2.977-1.392 0-2.328 1.205-2.328 2.977 0 1.787.936 2.984 2.328 2.984 1.416 0 2.344-1.172 2.344-2.984zM65.013 24.759c0 2.756-1.476 4.528-3.703 4.528a3.008 3.008 0 01-2.791-1.552h-.043v4.394h-1.82V20.322h1.762v1.476h.034a3.148 3.148 0 012.824-1.569c2.252 0 3.737 1.78 3.737 4.53zm-1.873 0c0-1.797-.928-2.977-2.344-2.977-1.391 0-2.327 1.205-2.327 2.977 0 1.787.936 2.984 2.327 2.984 1.416 0 2.345-1.172 2.345-2.984zM71.465 25.803c.135 1.207 1.307 2 2.91 2 1.534 0 2.639-.793 2.639-1.881 0-.945-.666-1.51-2.243-1.898l-1.577-.38c-2.235-.54-3.272-1.584-3.272-3.28 0-2.1 1.83-3.541 4.427-3.541 2.572 0 4.334 1.442 4.394 3.541h-1.838c-.11-1.214-1.114-1.947-2.581-1.947-1.467 0-2.471.741-2.471 1.82 0 .861.641 1.367 2.21 1.755l1.34.33c2.497.59 3.533 1.592 3.533 3.372 0 2.277-1.812 3.703-4.697 3.703-2.698 0-4.52-1.393-4.638-3.594h1.864zM82.868 18.223v2.1h1.687v1.441h-1.687v4.891c0 .76.338 1.114 1.08 1.114.2-.003.4-.018.599-.042v1.433c-.334.063-.673.09-1.012.084-1.796 0-2.497-.674-2.497-2.395v-5.085h-1.29v-1.442h1.29v-2.1h1.83zM85.531 24.759c0-2.792 1.644-4.546 4.208-4.546 2.572 0 4.208 1.754 4.208 4.546 0 2.799-1.627 4.545-4.208 4.545-2.58 0-4.208-1.746-4.208-4.545zm6.561 0c0-1.915-.878-3.046-2.353-3.046-1.476 0-2.353 1.14-2.353 3.046 0 1.922.877 3.043 2.353 3.043 1.475 0 2.353-1.121 2.353-3.043zM95.449 20.322h1.737v1.51h.042a2.116 2.116 0 012.134-1.603c.21 0 .419.022.624.068v1.704a2.547 2.547 0 00-.819-.11 1.836 1.836 0 00-1.897 2.04v5.263h-1.821v-8.872zM108.382 26.588c-.245 1.61-1.814 2.716-3.82 2.716-2.581 0-4.183-1.73-4.183-4.503 0-2.783 1.61-4.588 4.106-4.588 2.455 0 3.998 1.686 3.998 4.376v.624h-6.266v.11a2.31 2.31 0 002.387 2.513 2.006 2.006 0 002.049-1.248h1.729zm-6.156-2.648h4.435a2.132 2.132 0 00-2.176-2.251 2.25 2.25 0 00-2.089 1.387 2.248 2.248 0 00-.17.864z" fill="#000"></path><path d="M37.584 10.338h.781a.98.98 0 001.103-.932c0-.54-.406-.888-1.094-.888a1.042 1.042 0 00-1.18.916h-.858a1.832 1.832 0 012.066-1.71c1.151 0 1.962.645 1.962 1.572a1.358 1.358 0 01-1.063 1.338v.069a1.362 1.362 0 011.3 1.414 1.954 1.954 0 01-2.183 1.738 1.942 1.942 0 01-2.196-1.73h.872c.052.559.566.92 1.324.92.758 0 1.253-.405 1.253-.977 0-.58-.466-.936-1.28-.936h-.807v-.794zM41.592 12.465c0-.794.593-1.252 1.641-1.317l1.196-.069v-.38c0-.467-.308-.73-.904-.73-.486 0-.822.179-.92.49h-.842c.089-.757.802-1.243 1.803-1.243 1.106 0 1.73.55 1.73 1.482v3.015h-.839v-.62h-.069a1.484 1.484 0 01-1.325.693 1.334 1.334 0 01-1.47-1.32zm2.837-.377v-.369l-1.078.07c-.608.04-.883.247-.883.636 0 .397.344.628.818.628a1.042 1.042 0 001.142-.965zM47.608 10.034v3.68h-.871V9.3h2.905v.733h-2.035zM54.92 11.505c0 1.402-.71 2.28-1.824 2.28a1.438 1.438 0 01-1.357-.74h-.07v2.135h-.87V9.3h.838v.73h.065a1.533 1.533 0 011.386-.802c1.122 0 1.831.875 1.831 2.277zm-.896 0c0-.932-.441-1.495-1.18-1.495-.732 0-1.19.575-1.19 1.499 0 .92.458 1.495 1.187 1.495.742 0 1.183-.563 1.183-1.499zM56.08 15.293v-.75c.093.013.188.018.283.017a.755.755 0 00.798-.616l.066-.215-1.598-4.428h.949l1.106 3.504h.069l1.102-3.504h.924l-1.645 4.594c-.377 1.074-.794 1.419-1.694 1.419-.073 0-.28-.009-.36-.02zM60.457 12.461h.867c.085.389.45.592.96.592.58 0 .936-.256.936-.653 0-.425-.32-.628-.936-.628h-.66v-.677h.648c.527 0 .795-.202.795-.57 0-.325-.26-.572-.795-.572-.487 0-.843.207-.9.555h-.838a1.547 1.547 0 011.738-1.292c1.05 0 1.65.474 1.65 1.22a.907.907 0 01-.697.902v.07a.99.99 0 01.863.992c0 .839-.714 1.394-1.804 1.394-.964 0-1.746-.442-1.827-1.333zM65.342 13.713V9.301h.863v3.035h.069L68.307 9.3h.864v4.412h-.864v-3.051h-.065l-2.037 3.051h-.863zM73.925 10.034h-1.39v3.68h-.87v-3.68h-1.39V9.3h3.65v.733zM78.616 12.522a1.793 1.793 0 01-1.913 1.276 2.005 2.005 0 01-2.038-2.277A2.036 2.036 0 0176.7 9.215c1.227 0 1.969.84 1.969 2.225v.304h-3.116v.049a1.167 1.167 0 001.175 1.264 1.057 1.057 0 001.05-.535h.838zM75.553 11.1h2.228a1.064 1.064 0 00-1.085-1.143 1.127 1.127 0 00-1.143 1.143zM82.308 9.3h1.99c.863 0 1.369.438 1.369 1.123a.948.948 0 01-.746.932v.069a1.007 1.007 0 01.944 1.017c0 .77-.579 1.272-1.547 1.272h-2.01V9.301zm.863.67v1.142h.863c.527 0 .778-.203.778-.576 0-.344-.219-.567-.68-.567h-.96zm0 1.782v1.293h1.033c.515 0 .79-.228.79-.645 0-.441-.312-.648-.9-.648h-.923z" fill="#AAABAD"></path></svg>
